<?xml version="1.0" encoding="UTF-8"?>
<!-- Generator: Adobe Illustrator 19.0.0, SVG Export Plug-In . SVG Version: 6.00 Build 0)  -->
<svg version="1.1" id="competitive_x5F_gaming" xmlns="http://www.w3.org/2000/svg" xmlns:xlink="http://www.w3.org/1999/xlink" x="0px" y="0px" viewBox="0 0 131 162" enable-background="new 0 0 131 162" xml:space="preserve">
<linearGradient id="bg_x5F_grad_x5F_25_1_" gradientUnits="userSpaceOnUse" x1="60.2109" y1="110.8652" x2="60.2109" y2="49.1637">
	<stop offset="0.0016" style="stop-color:#F8951D;stop-opacity:0"/>
	<stop offset="1" style="stop-color:#F8951D;stop-opacity:0.25"/>
</linearGradient>
<path id="bg_x5F_grad_x5F_25" fill-rule="evenodd" clip-rule="evenodd" fill="url(#bg_x5F_grad_x5F_25_1_)" d="M27.798,100.684  l16.355,10.181l17.445-12.332l5.789,0.812l25.236-18.599l-1.053-4.138l-1.662,1.634l-1.248-1.226l2.411-2.37l1.517-2.367  l-3.283-6.451l-3.75,2.122l-1.103-1.354l4.111-2.49l0.746-1.466l-3.734-6.728l-4.315,2.499l-1.103-1.354l3.41-1.997l-4.5-5.895  l-11.09,7.601l3.66,3.729l-0.427,1.469l-0.308,0.135l-5.097,6.442l1.022,1.004l0.094,1.312l-4.445,5.825l1.034,1.016l0.046,1.37  l-5.806,6.521l-0.988,0.306l-2.746-0.674l-4.276,4.581L48.711,90l-5.121-2.249L27.798,100.684z"/>
<path id="line_x5F_75" opacity="0.75" fill-rule="evenodd" clip-rule="evenodd" fill="#B49069" d="M82.333,116.025l-0.002,0.002  l-0.001,0L65.5,126.504l-0.53-0.331L24.5,100.981V35.496h82v65.485L82.333,116.025z M82.557,113.535l20.871-12.992L88.821,87.267  l-19.419,14.312L82.557,113.535z M65.5,124.154l15.296-9.522l-13.514-12.283l-4.921-0.691L46.91,112.581L65.5,124.154z   M44.153,110.865l17.445-12.332l5.789,0.812l25.236-18.599l-1.053-4.138l-1.662,1.634l-1.248-1.226l2.411-2.37l-0.024-0.095  l1.541-2.272l-3.283-6.451l-3.75,2.122l-1.103-1.354l4.111-2.49l0.746-1.466l-3.734-6.728l-4.315,2.499l-1.103-1.354l3.41-1.997  l-4.5-5.895l-11.09,7.601l3.66,3.729l-0.427,1.469l-0.308,0.135l-5.097,6.442l1.022,1.004l0.094,1.312l-4.445,5.825l1.034,1.016  l0.046,1.37l-5.806,6.521l-0.988,0.306l-2.746-0.674l-4.276,4.581l-1.148,0.227l-5.003-2.277l-15.792,12.933L44.153,110.865z   M40.285,74.66l0.074,0.42l16.508,8.498l4.564-5.128l-0.984-0.967l-0.013-0.178L42.406,65.92l-3.451,6.781L40.285,74.66z   M38.907,81.431l3.744,3.702l6.117,2.785l4.14-4.436l-12.84-6.61L38.907,81.431z M42.836,64.173v0.037L60.81,75.573l3.988-5.226  l-1.033-1.016l-0.009-0.147l-17.706-13.02l-3.803,6.85L42.836,64.173z M64.203,67.346l5.101-6.446l-2.997-2.99l-0.019,0.013  l-0.56-0.811L52.96,48.85l-4.414,5.783l-0.796,0.393h-0.304L64.203,67.346z M65.686,54.709l2.993-2.052l-7.501-5.159l-2.635,2.589  L65.686,54.709z M26.5,37.488v60.39l14.331-11.737l-3.739-3.697l-0.265-0.952l1.549-6.087l-1.408-2.075l-0.063-1.008l3.918-7.699  l-0.6-1.179l0.017-0.932l4.977-8.964l0.875-0.514h1.163l4.676-6.126l1.341-0.233l3.556,2.301l3.536-3.476l1.271-0.11l8.808,6.059  l9.282-6.363l5.393,7.064h1.8l5.788,10.428l-0.845,1.66l4.201,8.258l-1.775,2.618l1.74,6.843l-5.566,4.102L104.5,98.82V37.488H26.5z  "/>
</svg>